# xmcd CD database file
#
# Track frame offsets:
#	150
#	14252
#	34747
#	53521
#	69421
#	93736
#	124723
#	148372
#	168852
#	190658
#	224367
#	240188
#
# Disc length: 3852 seconds
#
# Revision: 0
# Processed by: cddbd v1.5.1PL0 Copyright (c) Steve Scherf et al.
# Submitted via: CDex 1.51
#
DISCID=9f0f0a0c
DTITLE=Finis Tasby - What My Blues Are All About
DYEAR=2005
DGENRE=Blues
TTITLE0=Let's Have A Ball
TTITLE1=Back In Love Again
TTITLE2=Blues From Down Under
TTITLE3=It's So Sad
TTITLE4=Baby Please
TTITLE5=Mean Old World
TTITLE6=Sitting In My Window
TTITLE7=I Don't Want No Woman
TTITLE8=Save A Place For Me
TTITLE9=Dead End Street
TTITLE10=America
TTITLE11=Ugly Woman Blues
EXTD=YEAR: 2005
EXTT0=
EXTT1=
EXTT2=
EXTT3=
EXTT4=
EXTT5=
EXTT6=
EXTT7=
EXTT8=
EXTT9=
EXTT10=
EXTT11=
PLAYORDER=
